<mxfile host="app.diagrams.net" modified="2023-12-02T09:36:02.692Z" agent="Mozilla/5.0 (X11; Ubuntu; Linux x86_64; rv:109.0) Gecko/20100101 Firefox/119.0" etag="XDRQdj25WYUqEI4JudN1" version="21.8.2" type="device">
  <diagram name="Page-1" id="4_hm3OPlJAOV2C0Pi8Jo">
    <mxGraphModel dx="1382" dy="711" grid="1" gridSize="10" guides="1" tooltips="1" connect="1" arrows="1" fold="1" page="1" pageScale="1" pageWidth="1920" pageHeight="1200" math="0" shadow="0">
      <root>
        <mxCell id="0" />
        <mxCell id="1" parent="0" />
        <mxCell id="nBRvUsM2G6yTezKMeJZh-2" value="&lt;div&gt;SPI master&lt;/div&gt;" style="rounded=0;whiteSpace=wrap;html=1;" vertex="1" parent="1">
          <mxGeometry x="760" y="290" width="160" height="320" as="geometry" />
        </mxCell>
        <mxCell id="nBRvUsM2G6yTezKMeJZh-3" value="SS0" style="text;html=1;strokeColor=none;fillColor=none;align=center;verticalAlign=middle;whiteSpace=wrap;rounded=0;fontSize=8;" vertex="1" parent="1">
          <mxGeometry x="880" y="480" width="40" height="20" as="geometry" />
        </mxCell>
        <mxCell id="nBRvUsM2G6yTezKMeJZh-5" value="SS1" style="text;html=1;strokeColor=none;fillColor=none;align=center;verticalAlign=middle;whiteSpace=wrap;rounded=0;fontSize=8;" vertex="1" parent="1">
          <mxGeometry x="880" y="520" width="40" height="20" as="geometry" />
        </mxCell>
        <mxCell id="nBRvUsM2G6yTezKMeJZh-6" value="SS2" style="text;html=1;strokeColor=none;fillColor=none;align=center;verticalAlign=middle;whiteSpace=wrap;rounded=0;fontSize=8;" vertex="1" parent="1">
          <mxGeometry x="880" y="560" width="40" height="20" as="geometry" />
        </mxCell>
        <mxCell id="nBRvUsM2G6yTezKMeJZh-7" value="SCLK" style="text;html=1;strokeColor=none;fillColor=none;align=center;verticalAlign=middle;whiteSpace=wrap;rounded=0;fontSize=8;" vertex="1" parent="1">
          <mxGeometry x="880" y="320" width="40" height="20" as="geometry" />
        </mxCell>
        <mxCell id="nBRvUsM2G6yTezKMeJZh-8" value="MOSI" style="text;html=1;strokeColor=none;fillColor=none;align=center;verticalAlign=middle;whiteSpace=wrap;rounded=0;fontSize=8;" vertex="1" parent="1">
          <mxGeometry x="880" y="360" width="40" height="20" as="geometry" />
        </mxCell>
        <mxCell id="nBRvUsM2G6yTezKMeJZh-9" value="MISO" style="text;html=1;strokeColor=none;fillColor=none;align=center;verticalAlign=middle;whiteSpace=wrap;rounded=0;fontSize=8;" vertex="1" parent="1">
          <mxGeometry x="880" y="400" width="40" height="20" as="geometry" />
        </mxCell>
        <mxCell id="nBRvUsM2G6yTezKMeJZh-10" value="&lt;div&gt;Flash&lt;/div&gt;&lt;div&gt;W25Q16&lt;br&gt;&lt;/div&gt;" style="rounded=0;whiteSpace=wrap;html=1;" vertex="1" parent="1">
          <mxGeometry x="1080" y="280" width="160" height="80" as="geometry" />
        </mxCell>
        <mxCell id="nBRvUsM2G6yTezKMeJZh-11" value="MPU6000" style="rounded=0;whiteSpace=wrap;html=1;" vertex="1" parent="1">
          <mxGeometry x="1080" y="480" width="160" height="80" as="geometry" />
        </mxCell>
        <mxCell id="nBRvUsM2G6yTezKMeJZh-12" value="DI" style="text;html=1;strokeColor=none;fillColor=none;align=center;verticalAlign=middle;whiteSpace=wrap;rounded=0;fontSize=8;" vertex="1" parent="1">
          <mxGeometry x="1080" y="280" width="40" height="20" as="geometry" />
        </mxCell>
        <mxCell id="nBRvUsM2G6yTezKMeJZh-13" value="DO" style="text;html=1;strokeColor=none;fillColor=none;align=center;verticalAlign=middle;whiteSpace=wrap;rounded=0;fontSize=8;" vertex="1" parent="1">
          <mxGeometry x="1080" y="300" width="40" height="20" as="geometry" />
        </mxCell>
        <mxCell id="nBRvUsM2G6yTezKMeJZh-14" value="CLK" style="text;html=1;strokeColor=none;fillColor=none;align=center;verticalAlign=middle;whiteSpace=wrap;rounded=0;fontSize=8;" vertex="1" parent="1">
          <mxGeometry x="1080" y="320" width="40" height="20" as="geometry" />
        </mxCell>
        <mxCell id="nBRvUsM2G6yTezKMeJZh-15" value="CS" style="text;html=1;strokeColor=none;fillColor=none;align=center;verticalAlign=middle;whiteSpace=wrap;rounded=0;fontSize=8;" vertex="1" parent="1">
          <mxGeometry x="1080" y="340" width="40" height="20" as="geometry" />
        </mxCell>
        <mxCell id="nBRvUsM2G6yTezKMeJZh-16" value="RST" style="text;html=1;strokeColor=none;fillColor=none;align=center;verticalAlign=middle;whiteSpace=wrap;rounded=0;fontSize=8;" vertex="1" parent="1">
          <mxGeometry x="1140" y="280" width="40" height="20" as="geometry" />
        </mxCell>
        <mxCell id="nBRvUsM2G6yTezKMeJZh-17" value="SDI" style="text;html=1;strokeColor=none;fillColor=none;align=center;verticalAlign=middle;whiteSpace=wrap;rounded=0;fontSize=8;" vertex="1" parent="1">
          <mxGeometry x="1080" y="480" width="40" height="20" as="geometry" />
        </mxCell>
        <mxCell id="nBRvUsM2G6yTezKMeJZh-18" value="SDO" style="text;html=1;strokeColor=none;fillColor=none;align=center;verticalAlign=middle;whiteSpace=wrap;rounded=0;fontSize=8;" vertex="1" parent="1">
          <mxGeometry x="1080" y="500" width="40" height="20" as="geometry" />
        </mxCell>
        <mxCell id="nBRvUsM2G6yTezKMeJZh-19" value="CLK" style="text;html=1;strokeColor=none;fillColor=none;align=center;verticalAlign=middle;whiteSpace=wrap;rounded=0;fontSize=8;" vertex="1" parent="1">
          <mxGeometry x="1080" y="520" width="40" height="20" as="geometry" />
        </mxCell>
        <mxCell id="nBRvUsM2G6yTezKMeJZh-20" value="CS" style="text;html=1;strokeColor=none;fillColor=none;align=center;verticalAlign=middle;whiteSpace=wrap;rounded=0;fontSize=8;" vertex="1" parent="1">
          <mxGeometry x="1080" y="540" width="40" height="20" as="geometry" />
        </mxCell>
        <mxCell id="nBRvUsM2G6yTezKMeJZh-21" value="&lt;div&gt;Shift reg&lt;/div&gt;&lt;div&gt;M74HC595&lt;br&gt;&lt;/div&gt;" style="rounded=0;whiteSpace=wrap;html=1;" vertex="1" parent="1">
          <mxGeometry x="1440" y="160" width="160" height="80" as="geometry" />
        </mxCell>
        <mxCell id="nBRvUsM2G6yTezKMeJZh-22" value="&lt;div&gt;Shift reg&lt;/div&gt;&lt;div&gt;M74HC595&lt;br&gt;&lt;/div&gt;" style="rounded=0;whiteSpace=wrap;html=1;" vertex="1" parent="1">
          <mxGeometry x="1440" y="280" width="160" height="80" as="geometry" />
        </mxCell>
        <mxCell id="nBRvUsM2G6yTezKMeJZh-23" value="&lt;div&gt;Shift reg&lt;/div&gt;&lt;div&gt;M74HC595&lt;br&gt;&lt;/div&gt;" style="rounded=0;whiteSpace=wrap;html=1;" vertex="1" parent="1">
          <mxGeometry x="1440" y="400" width="160" height="80" as="geometry" />
        </mxCell>
        <mxCell id="nBRvUsM2G6yTezKMeJZh-24" value="&lt;div&gt;Shift reg&lt;/div&gt;&lt;div&gt;M74HC595&lt;br&gt;&lt;/div&gt;" style="rounded=0;whiteSpace=wrap;html=1;" vertex="1" parent="1">
          <mxGeometry x="1440" y="520" width="160" height="80" as="geometry" />
        </mxCell>
        <mxCell id="nBRvUsM2G6yTezKMeJZh-25" value="&lt;div&gt;Shift reg&lt;/div&gt;&lt;div&gt;M74HC595&lt;br&gt;&lt;/div&gt;" style="rounded=0;whiteSpace=wrap;html=1;" vertex="1" parent="1">
          <mxGeometry x="1440" y="40" width="160" height="80" as="geometry" />
        </mxCell>
        <mxCell id="nBRvUsM2G6yTezKMeJZh-26" value="&lt;div&gt;Shift reg&lt;/div&gt;&lt;div&gt;M74HC595&lt;br&gt;&lt;/div&gt;" style="rounded=0;whiteSpace=wrap;html=1;" vertex="1" parent="1">
          <mxGeometry x="1440" y="640" width="160" height="80" as="geometry" />
        </mxCell>
        <mxCell id="nBRvUsM2G6yTezKMeJZh-27" value="&lt;div&gt;Flash&lt;/div&gt;&lt;div&gt;W25Q16&lt;br&gt;&lt;/div&gt;" style="rounded=0;whiteSpace=wrap;html=1;" vertex="1" parent="1">
          <mxGeometry x="1440" y="760" width="160" height="80" as="geometry" />
        </mxCell>
        <mxCell id="nBRvUsM2G6yTezKMeJZh-28" value="&lt;div&gt;Flash&lt;/div&gt;&lt;div&gt;W25Q16&lt;br&gt;&lt;/div&gt;" style="rounded=0;whiteSpace=wrap;html=1;" vertex="1" parent="1">
          <mxGeometry x="1440" y="880" width="160" height="80" as="geometry" />
        </mxCell>
        <mxCell id="nBRvUsM2G6yTezKMeJZh-29" value="Seven seg ind" style="rounded=0;whiteSpace=wrap;html=1;" vertex="1" parent="1">
          <mxGeometry x="1680" y="40" width="160" height="80" as="geometry" />
        </mxCell>
        <mxCell id="nBRvUsM2G6yTezKMeJZh-30" value="Seven seg ind" style="rounded=0;whiteSpace=wrap;html=1;" vertex="1" parent="1">
          <mxGeometry x="1680" y="160" width="160" height="80" as="geometry" />
        </mxCell>
        <mxCell id="nBRvUsM2G6yTezKMeJZh-31" value="Seven seg ind" style="rounded=0;whiteSpace=wrap;html=1;" vertex="1" parent="1">
          <mxGeometry x="1680" y="280" width="160" height="80" as="geometry" />
        </mxCell>
        <mxCell id="nBRvUsM2G6yTezKMeJZh-32" value="Seven seg ind" style="rounded=0;whiteSpace=wrap;html=1;" vertex="1" parent="1">
          <mxGeometry x="1680" y="400" width="160" height="80" as="geometry" />
        </mxCell>
        <mxCell id="nBRvUsM2G6yTezKMeJZh-33" value="Seven seg ind" style="rounded=0;whiteSpace=wrap;html=1;" vertex="1" parent="1">
          <mxGeometry x="1680" y="520" width="160" height="80" as="geometry" />
        </mxCell>
        <mxCell id="nBRvUsM2G6yTezKMeJZh-35" value="Seven seg ind" style="rounded=0;whiteSpace=wrap;html=1;" vertex="1" parent="1">
          <mxGeometry x="1680" y="640" width="160" height="80" as="geometry" />
        </mxCell>
        <mxCell id="nBRvUsM2G6yTezKMeJZh-36" value="&lt;div&gt;DS&lt;/div&gt;" style="text;html=1;strokeColor=none;fillColor=none;align=center;verticalAlign=middle;whiteSpace=wrap;rounded=0;fontSize=8;" vertex="1" parent="1">
          <mxGeometry x="1440" y="70" width="40" height="20" as="geometry" />
        </mxCell>
        <mxCell id="nBRvUsM2G6yTezKMeJZh-37" value="MRn" style="text;html=1;strokeColor=none;fillColor=none;align=center;verticalAlign=middle;whiteSpace=wrap;rounded=0;fontSize=8;" vertex="1" parent="1">
          <mxGeometry x="1440" y="40" width="40" height="20" as="geometry" />
        </mxCell>
        <mxCell id="nBRvUsM2G6yTezKMeJZh-38" value="&lt;div&gt;SHCP&lt;/div&gt;" style="text;html=1;strokeColor=none;fillColor=none;align=center;verticalAlign=middle;whiteSpace=wrap;rounded=0;fontSize=8;" vertex="1" parent="1">
          <mxGeometry x="1440" y="100" width="40" height="20" as="geometry" />
        </mxCell>
        <mxCell id="nBRvUsM2G6yTezKMeJZh-39" value="&lt;div&gt;DS&lt;/div&gt;" style="text;html=1;strokeColor=none;fillColor=none;align=center;verticalAlign=middle;whiteSpace=wrap;rounded=0;fontSize=8;" vertex="1" parent="1">
          <mxGeometry x="1440" y="190" width="40" height="20" as="geometry" />
        </mxCell>
        <mxCell id="nBRvUsM2G6yTezKMeJZh-40" value="MRn" style="text;html=1;strokeColor=none;fillColor=none;align=center;verticalAlign=middle;whiteSpace=wrap;rounded=0;fontSize=8;" vertex="1" parent="1">
          <mxGeometry x="1440" y="160" width="40" height="20" as="geometry" />
        </mxCell>
        <mxCell id="nBRvUsM2G6yTezKMeJZh-41" value="&lt;div&gt;SHCP&lt;/div&gt;" style="text;html=1;strokeColor=none;fillColor=none;align=center;verticalAlign=middle;whiteSpace=wrap;rounded=0;fontSize=8;" vertex="1" parent="1">
          <mxGeometry x="1440" y="220" width="40" height="20" as="geometry" />
        </mxCell>
        <mxCell id="nBRvUsM2G6yTezKMeJZh-42" value="&lt;div&gt;DS&lt;/div&gt;" style="text;html=1;strokeColor=none;fillColor=none;align=center;verticalAlign=middle;whiteSpace=wrap;rounded=0;fontSize=8;" vertex="1" parent="1">
          <mxGeometry x="1440" y="310" width="40" height="20" as="geometry" />
        </mxCell>
        <mxCell id="nBRvUsM2G6yTezKMeJZh-43" value="MRn" style="text;html=1;strokeColor=none;fillColor=none;align=center;verticalAlign=middle;whiteSpace=wrap;rounded=0;fontSize=8;" vertex="1" parent="1">
          <mxGeometry x="1440" y="280" width="40" height="20" as="geometry" />
        </mxCell>
        <mxCell id="nBRvUsM2G6yTezKMeJZh-44" value="&lt;div&gt;SHCP&lt;/div&gt;" style="text;html=1;strokeColor=none;fillColor=none;align=center;verticalAlign=middle;whiteSpace=wrap;rounded=0;fontSize=8;" vertex="1" parent="1">
          <mxGeometry x="1440" y="340" width="40" height="20" as="geometry" />
        </mxCell>
        <mxCell id="nBRvUsM2G6yTezKMeJZh-45" value="&lt;div&gt;DS&lt;/div&gt;" style="text;html=1;strokeColor=none;fillColor=none;align=center;verticalAlign=middle;whiteSpace=wrap;rounded=0;fontSize=8;" vertex="1" parent="1">
          <mxGeometry x="1440" y="430" width="40" height="20" as="geometry" />
        </mxCell>
        <mxCell id="nBRvUsM2G6yTezKMeJZh-46" value="MRn" style="text;html=1;strokeColor=none;fillColor=none;align=center;verticalAlign=middle;whiteSpace=wrap;rounded=0;fontSize=8;" vertex="1" parent="1">
          <mxGeometry x="1440" y="400" width="40" height="20" as="geometry" />
        </mxCell>
        <mxCell id="nBRvUsM2G6yTezKMeJZh-47" value="&lt;div&gt;SHCP&lt;/div&gt;" style="text;html=1;strokeColor=none;fillColor=none;align=center;verticalAlign=middle;whiteSpace=wrap;rounded=0;fontSize=8;" vertex="1" parent="1">
          <mxGeometry x="1440" y="460" width="40" height="20" as="geometry" />
        </mxCell>
        <mxCell id="nBRvUsM2G6yTezKMeJZh-48" value="&lt;div&gt;DS&lt;/div&gt;" style="text;html=1;strokeColor=none;fillColor=none;align=center;verticalAlign=middle;whiteSpace=wrap;rounded=0;fontSize=8;" vertex="1" parent="1">
          <mxGeometry x="1440" y="550" width="40" height="20" as="geometry" />
        </mxCell>
        <mxCell id="nBRvUsM2G6yTezKMeJZh-49" value="MRn" style="text;html=1;strokeColor=none;fillColor=none;align=center;verticalAlign=middle;whiteSpace=wrap;rounded=0;fontSize=8;" vertex="1" parent="1">
          <mxGeometry x="1440" y="520" width="40" height="20" as="geometry" />
        </mxCell>
        <mxCell id="nBRvUsM2G6yTezKMeJZh-50" value="&lt;div&gt;SHCP&lt;/div&gt;" style="text;html=1;strokeColor=none;fillColor=none;align=center;verticalAlign=middle;whiteSpace=wrap;rounded=0;fontSize=8;" vertex="1" parent="1">
          <mxGeometry x="1440" y="580" width="40" height="20" as="geometry" />
        </mxCell>
        <mxCell id="nBRvUsM2G6yTezKMeJZh-51" value="&lt;div&gt;DS&lt;/div&gt;" style="text;html=1;strokeColor=none;fillColor=none;align=center;verticalAlign=middle;whiteSpace=wrap;rounded=0;fontSize=8;" vertex="1" parent="1">
          <mxGeometry x="1440" y="670" width="40" height="20" as="geometry" />
        </mxCell>
        <mxCell id="nBRvUsM2G6yTezKMeJZh-52" value="MRn" style="text;html=1;strokeColor=none;fillColor=none;align=center;verticalAlign=middle;whiteSpace=wrap;rounded=0;fontSize=8;" vertex="1" parent="1">
          <mxGeometry x="1440" y="640" width="40" height="20" as="geometry" />
        </mxCell>
        <mxCell id="nBRvUsM2G6yTezKMeJZh-53" value="&lt;div&gt;SHCP&lt;/div&gt;" style="text;html=1;strokeColor=none;fillColor=none;align=center;verticalAlign=middle;whiteSpace=wrap;rounded=0;fontSize=8;" vertex="1" parent="1">
          <mxGeometry x="1440" y="700" width="40" height="20" as="geometry" />
        </mxCell>
        <mxCell id="nBRvUsM2G6yTezKMeJZh-54" value="&lt;div&gt;DS&lt;/div&gt;" style="text;html=1;strokeColor=none;fillColor=none;align=center;verticalAlign=middle;whiteSpace=wrap;rounded=0;fontSize=8;" vertex="1" parent="1">
          <mxGeometry x="1440" y="790" width="40" height="20" as="geometry" />
        </mxCell>
        <mxCell id="nBRvUsM2G6yTezKMeJZh-55" value="MRn" style="text;html=1;strokeColor=none;fillColor=none;align=center;verticalAlign=middle;whiteSpace=wrap;rounded=0;fontSize=8;" vertex="1" parent="1">
          <mxGeometry x="1440" y="760" width="40" height="20" as="geometry" />
        </mxCell>
        <mxCell id="nBRvUsM2G6yTezKMeJZh-56" value="&lt;div&gt;SHCP&lt;/div&gt;" style="text;html=1;strokeColor=none;fillColor=none;align=center;verticalAlign=middle;whiteSpace=wrap;rounded=0;fontSize=8;" vertex="1" parent="1">
          <mxGeometry x="1440" y="820" width="40" height="20" as="geometry" />
        </mxCell>
        <mxCell id="nBRvUsM2G6yTezKMeJZh-57" value="&lt;div&gt;DS&lt;/div&gt;" style="text;html=1;strokeColor=none;fillColor=none;align=center;verticalAlign=middle;whiteSpace=wrap;rounded=0;fontSize=8;" vertex="1" parent="1">
          <mxGeometry x="1440" y="910" width="40" height="20" as="geometry" />
        </mxCell>
        <mxCell id="nBRvUsM2G6yTezKMeJZh-58" value="MRn" style="text;html=1;strokeColor=none;fillColor=none;align=center;verticalAlign=middle;whiteSpace=wrap;rounded=0;fontSize=8;" vertex="1" parent="1">
          <mxGeometry x="1440" y="880" width="40" height="20" as="geometry" />
        </mxCell>
        <mxCell id="nBRvUsM2G6yTezKMeJZh-59" value="&lt;div&gt;SHCP&lt;/div&gt;" style="text;html=1;strokeColor=none;fillColor=none;align=center;verticalAlign=middle;whiteSpace=wrap;rounded=0;fontSize=8;" vertex="1" parent="1">
          <mxGeometry x="1440" y="940" width="40" height="20" as="geometry" />
        </mxCell>
        <mxCell id="nBRvUsM2G6yTezKMeJZh-61" value="" style="endArrow=classic;html=1;rounded=0;entryX=0;entryY=0.5;entryDx=0;entryDy=0;" edge="1" parent="1" target="nBRvUsM2G6yTezKMeJZh-19">
          <mxGeometry width="50" height="50" relative="1" as="geometry">
            <mxPoint x="980" y="330" as="sourcePoint" />
            <mxPoint x="980" y="550" as="targetPoint" />
            <Array as="points">
              <mxPoint x="980" y="530" />
            </Array>
          </mxGeometry>
        </mxCell>
        <mxCell id="nBRvUsM2G6yTezKMeJZh-63" value="" style="ellipse;whiteSpace=wrap;html=1;aspect=fixed;" vertex="1" parent="1">
          <mxGeometry x="NaN" y="NaN" width="NaN" height="10" as="geometry" />
        </mxCell>
        <mxCell id="nBRvUsM2G6yTezKMeJZh-71" value="" style="endArrow=none;html=1;rounded=0;exitX=1;exitY=0.5;exitDx=0;exitDy=0;" edge="1" parent="1">
          <mxGeometry width="50" height="50" relative="1" as="geometry">
            <mxPoint x="920" y="330" as="sourcePoint" />
            <mxPoint x="980" y="340" as="targetPoint" />
            <Array as="points">
              <mxPoint x="980" y="330" />
            </Array>
          </mxGeometry>
        </mxCell>
        <mxCell id="nBRvUsM2G6yTezKMeJZh-72" value="" style="html=1;verticalAlign=bottom;startArrow=oval;startFill=1;endArrow=block;startSize=8;curved=0;rounded=0;entryX=0;entryY=0.5;entryDx=0;entryDy=0;" edge="1" parent="1">
          <mxGeometry width="60" relative="1" as="geometry">
            <mxPoint x="980" y="330" as="sourcePoint" />
            <mxPoint x="1080" y="330" as="targetPoint" />
          </mxGeometry>
        </mxCell>
        <mxCell id="nBRvUsM2G6yTezKMeJZh-73" value="" style="endArrow=none;html=1;rounded=0;" edge="1" parent="1">
          <mxGeometry width="50" height="50" relative="1" as="geometry">
            <mxPoint x="980" y="330" as="sourcePoint" />
            <mxPoint x="1400" y="40" as="targetPoint" />
            <Array as="points">
              <mxPoint x="980" y="40" />
            </Array>
          </mxGeometry>
        </mxCell>
        <mxCell id="nBRvUsM2G6yTezKMeJZh-75" value="" style="endArrow=none;html=1;rounded=0;" edge="1" parent="1">
          <mxGeometry width="50" height="50" relative="1" as="geometry">
            <mxPoint x="1400" y="830" as="sourcePoint" />
            <mxPoint x="1400" y="40" as="targetPoint" />
          </mxGeometry>
        </mxCell>
        <mxCell id="nBRvUsM2G6yTezKMeJZh-76" value="" style="html=1;verticalAlign=bottom;startArrow=oval;startFill=1;endArrow=block;startSize=8;curved=0;rounded=0;" edge="1" parent="1">
          <mxGeometry width="60" relative="1" as="geometry">
            <mxPoint x="1400" y="109.8" as="sourcePoint" />
            <mxPoint x="1440" y="110" as="targetPoint" />
          </mxGeometry>
        </mxCell>
        <mxCell id="nBRvUsM2G6yTezKMeJZh-77" value="" style="html=1;verticalAlign=bottom;startArrow=oval;startFill=1;endArrow=block;startSize=8;curved=0;rounded=0;" edge="1" parent="1">
          <mxGeometry width="60" relative="1" as="geometry">
            <mxPoint x="1400" y="229.8" as="sourcePoint" />
            <mxPoint x="1440" y="230" as="targetPoint" />
          </mxGeometry>
        </mxCell>
        <mxCell id="nBRvUsM2G6yTezKMeJZh-78" value="" style="html=1;verticalAlign=bottom;startArrow=oval;startFill=1;endArrow=block;startSize=8;curved=0;rounded=0;" edge="1" parent="1">
          <mxGeometry width="60" relative="1" as="geometry">
            <mxPoint x="1400" y="349.8" as="sourcePoint" />
            <mxPoint x="1440" y="350" as="targetPoint" />
          </mxGeometry>
        </mxCell>
        <mxCell id="nBRvUsM2G6yTezKMeJZh-79" value="" style="html=1;verticalAlign=bottom;startArrow=oval;startFill=1;endArrow=block;startSize=8;curved=0;rounded=0;" edge="1" parent="1">
          <mxGeometry width="60" relative="1" as="geometry">
            <mxPoint x="1400" y="469.8" as="sourcePoint" />
            <mxPoint x="1440" y="470" as="targetPoint" />
          </mxGeometry>
        </mxCell>
        <mxCell id="nBRvUsM2G6yTezKMeJZh-80" value="" style="html=1;verticalAlign=bottom;startArrow=oval;startFill=1;endArrow=block;startSize=8;curved=0;rounded=0;" edge="1" parent="1">
          <mxGeometry width="60" relative="1" as="geometry">
            <mxPoint x="1400" y="589.8" as="sourcePoint" />
            <mxPoint x="1440" y="590" as="targetPoint" />
          </mxGeometry>
        </mxCell>
        <mxCell id="nBRvUsM2G6yTezKMeJZh-81" value="" style="html=1;verticalAlign=bottom;startArrow=oval;startFill=1;endArrow=block;startSize=8;curved=0;rounded=0;" edge="1" parent="1">
          <mxGeometry width="60" relative="1" as="geometry">
            <mxPoint x="1400" y="709.8" as="sourcePoint" />
            <mxPoint x="1440" y="710" as="targetPoint" />
          </mxGeometry>
        </mxCell>
        <mxCell id="nBRvUsM2G6yTezKMeJZh-83" value="" style="html=1;verticalAlign=bottom;startArrow=oval;startFill=1;endArrow=block;startSize=8;curved=0;rounded=0;" edge="1" parent="1">
          <mxGeometry width="60" relative="1" as="geometry">
            <mxPoint x="1400" y="829.8" as="sourcePoint" />
            <mxPoint x="1440" y="830" as="targetPoint" />
          </mxGeometry>
        </mxCell>
        <mxCell id="nBRvUsM2G6yTezKMeJZh-84" value="" style="endArrow=classic;html=1;rounded=0;entryX=0;entryY=0.5;entryDx=0;entryDy=0;" edge="1" parent="1" target="nBRvUsM2G6yTezKMeJZh-59">
          <mxGeometry width="50" height="50" relative="1" as="geometry">
            <mxPoint x="1400" y="830" as="sourcePoint" />
            <mxPoint x="1400" y="980" as="targetPoint" />
            <Array as="points">
              <mxPoint x="1400" y="950" />
            </Array>
          </mxGeometry>
        </mxCell>
        <mxCell id="nBRvUsM2G6yTezKMeJZh-85" value="RST" style="text;html=1;strokeColor=none;fillColor=none;align=center;verticalAlign=middle;whiteSpace=wrap;rounded=0;fontSize=8;" vertex="1" parent="1">
          <mxGeometry x="820" y="290" width="40" height="20" as="geometry" />
        </mxCell>
        <mxCell id="nBRvUsM2G6yTezKMeJZh-86" value="" style="endArrow=classic;html=1;rounded=0;entryX=0.5;entryY=0;entryDx=0;entryDy=0;" edge="1" parent="1" target="nBRvUsM2G6yTezKMeJZh-16">
          <mxGeometry width="50" height="50" relative="1" as="geometry">
            <mxPoint x="840" y="290" as="sourcePoint" />
            <mxPoint x="1190" y="200" as="targetPoint" />
            <Array as="points">
              <mxPoint x="840" y="200" />
              <mxPoint x="1160" y="200" />
            </Array>
          </mxGeometry>
        </mxCell>
        <mxCell id="nBRvUsM2G6yTezKMeJZh-87" value="Seven seg ind" style="rounded=0;whiteSpace=wrap;html=1;" vertex="1" parent="1">
          <mxGeometry x="1680" y="760" width="160" height="80" as="geometry" />
        </mxCell>
        <mxCell id="nBRvUsM2G6yTezKMeJZh-88" value="Seven seg ind" style="rounded=0;whiteSpace=wrap;html=1;" vertex="1" parent="1">
          <mxGeometry x="1680" y="880" width="160" height="80" as="geometry" />
        </mxCell>
        <mxCell id="nBRvUsM2G6yTezKMeJZh-89" value="" style="endArrow=classic;html=1;rounded=0;" edge="1" parent="1">
          <mxGeometry width="50" height="50" relative="1" as="geometry">
            <mxPoint x="1600" y="80" as="sourcePoint" />
            <mxPoint x="1680" y="80" as="targetPoint" />
          </mxGeometry>
        </mxCell>
        <mxCell id="nBRvUsM2G6yTezKMeJZh-90" value="" style="endArrow=none;html=1;rounded=0;" edge="1" parent="1">
          <mxGeometry width="50" height="50" relative="1" as="geometry">
            <mxPoint x="1630" y="90" as="sourcePoint" />
            <mxPoint x="1650" y="70" as="targetPoint" />
          </mxGeometry>
        </mxCell>
        <mxCell id="nBRvUsM2G6yTezKMeJZh-91" value="8" style="text;html=1;strokeColor=none;fillColor=none;align=center;verticalAlign=middle;whiteSpace=wrap;rounded=0;" vertex="1" parent="1">
          <mxGeometry x="1610" y="50" width="60" height="30" as="geometry" />
        </mxCell>
        <mxCell id="nBRvUsM2G6yTezKMeJZh-92" value="" style="endArrow=classic;html=1;rounded=0;" edge="1" parent="1">
          <mxGeometry width="50" height="50" relative="1" as="geometry">
            <mxPoint x="1600" y="200" as="sourcePoint" />
            <mxPoint x="1680" y="200" as="targetPoint" />
          </mxGeometry>
        </mxCell>
        <mxCell id="nBRvUsM2G6yTezKMeJZh-93" value="" style="endArrow=none;html=1;rounded=0;" edge="1" parent="1">
          <mxGeometry width="50" height="50" relative="1" as="geometry">
            <mxPoint x="1630" y="210" as="sourcePoint" />
            <mxPoint x="1650" y="190" as="targetPoint" />
          </mxGeometry>
        </mxCell>
        <mxCell id="nBRvUsM2G6yTezKMeJZh-94" value="8" style="text;html=1;strokeColor=none;fillColor=none;align=center;verticalAlign=middle;whiteSpace=wrap;rounded=0;" vertex="1" parent="1">
          <mxGeometry x="1610" y="170" width="60" height="30" as="geometry" />
        </mxCell>
        <mxCell id="nBRvUsM2G6yTezKMeJZh-95" value="" style="endArrow=classic;html=1;rounded=0;" edge="1" parent="1">
          <mxGeometry width="50" height="50" relative="1" as="geometry">
            <mxPoint x="1600" y="320" as="sourcePoint" />
            <mxPoint x="1680" y="320" as="targetPoint" />
          </mxGeometry>
        </mxCell>
        <mxCell id="nBRvUsM2G6yTezKMeJZh-96" value="" style="endArrow=none;html=1;rounded=0;" edge="1" parent="1">
          <mxGeometry width="50" height="50" relative="1" as="geometry">
            <mxPoint x="1630" y="330" as="sourcePoint" />
            <mxPoint x="1650" y="310" as="targetPoint" />
          </mxGeometry>
        </mxCell>
        <mxCell id="nBRvUsM2G6yTezKMeJZh-97" value="8" style="text;html=1;strokeColor=none;fillColor=none;align=center;verticalAlign=middle;whiteSpace=wrap;rounded=0;" vertex="1" parent="1">
          <mxGeometry x="1610" y="290" width="60" height="30" as="geometry" />
        </mxCell>
        <mxCell id="nBRvUsM2G6yTezKMeJZh-98" value="" style="endArrow=classic;html=1;rounded=0;" edge="1" parent="1">
          <mxGeometry width="50" height="50" relative="1" as="geometry">
            <mxPoint x="1600" y="440" as="sourcePoint" />
            <mxPoint x="1680" y="440" as="targetPoint" />
          </mxGeometry>
        </mxCell>
        <mxCell id="nBRvUsM2G6yTezKMeJZh-99" value="" style="endArrow=none;html=1;rounded=0;" edge="1" parent="1">
          <mxGeometry width="50" height="50" relative="1" as="geometry">
            <mxPoint x="1630" y="450" as="sourcePoint" />
            <mxPoint x="1650" y="430" as="targetPoint" />
          </mxGeometry>
        </mxCell>
        <mxCell id="nBRvUsM2G6yTezKMeJZh-100" value="8" style="text;html=1;strokeColor=none;fillColor=none;align=center;verticalAlign=middle;whiteSpace=wrap;rounded=0;" vertex="1" parent="1">
          <mxGeometry x="1610" y="410" width="60" height="30" as="geometry" />
        </mxCell>
        <mxCell id="nBRvUsM2G6yTezKMeJZh-101" value="" style="endArrow=classic;html=1;rounded=0;" edge="1" parent="1">
          <mxGeometry width="50" height="50" relative="1" as="geometry">
            <mxPoint x="1600" y="560" as="sourcePoint" />
            <mxPoint x="1680" y="560" as="targetPoint" />
          </mxGeometry>
        </mxCell>
        <mxCell id="nBRvUsM2G6yTezKMeJZh-102" value="" style="endArrow=none;html=1;rounded=0;" edge="1" parent="1">
          <mxGeometry width="50" height="50" relative="1" as="geometry">
            <mxPoint x="1630" y="570" as="sourcePoint" />
            <mxPoint x="1650" y="550" as="targetPoint" />
          </mxGeometry>
        </mxCell>
        <mxCell id="nBRvUsM2G6yTezKMeJZh-103" value="8" style="text;html=1;strokeColor=none;fillColor=none;align=center;verticalAlign=middle;whiteSpace=wrap;rounded=0;" vertex="1" parent="1">
          <mxGeometry x="1610" y="530" width="60" height="30" as="geometry" />
        </mxCell>
        <mxCell id="nBRvUsM2G6yTezKMeJZh-104" value="" style="endArrow=classic;html=1;rounded=0;" edge="1" parent="1">
          <mxGeometry width="50" height="50" relative="1" as="geometry">
            <mxPoint x="1600" y="680" as="sourcePoint" />
            <mxPoint x="1680" y="680" as="targetPoint" />
          </mxGeometry>
        </mxCell>
        <mxCell id="nBRvUsM2G6yTezKMeJZh-105" value="" style="endArrow=none;html=1;rounded=0;" edge="1" parent="1">
          <mxGeometry width="50" height="50" relative="1" as="geometry">
            <mxPoint x="1630" y="690" as="sourcePoint" />
            <mxPoint x="1650" y="670" as="targetPoint" />
          </mxGeometry>
        </mxCell>
        <mxCell id="nBRvUsM2G6yTezKMeJZh-106" value="8" style="text;html=1;strokeColor=none;fillColor=none;align=center;verticalAlign=middle;whiteSpace=wrap;rounded=0;" vertex="1" parent="1">
          <mxGeometry x="1610" y="650" width="60" height="30" as="geometry" />
        </mxCell>
        <mxCell id="nBRvUsM2G6yTezKMeJZh-110" value="" style="endArrow=classic;html=1;rounded=0;" edge="1" parent="1">
          <mxGeometry width="50" height="50" relative="1" as="geometry">
            <mxPoint x="1600" y="800" as="sourcePoint" />
            <mxPoint x="1680" y="800" as="targetPoint" />
          </mxGeometry>
        </mxCell>
        <mxCell id="nBRvUsM2G6yTezKMeJZh-111" value="" style="endArrow=none;html=1;rounded=0;" edge="1" parent="1">
          <mxGeometry width="50" height="50" relative="1" as="geometry">
            <mxPoint x="1630" y="810" as="sourcePoint" />
            <mxPoint x="1650" y="790" as="targetPoint" />
          </mxGeometry>
        </mxCell>
        <mxCell id="nBRvUsM2G6yTezKMeJZh-112" value="8" style="text;html=1;strokeColor=none;fillColor=none;align=center;verticalAlign=middle;whiteSpace=wrap;rounded=0;" vertex="1" parent="1">
          <mxGeometry x="1610" y="770" width="60" height="30" as="geometry" />
        </mxCell>
        <mxCell id="nBRvUsM2G6yTezKMeJZh-113" value="" style="endArrow=classic;html=1;rounded=0;" edge="1" parent="1">
          <mxGeometry width="50" height="50" relative="1" as="geometry">
            <mxPoint x="1600" y="920" as="sourcePoint" />
            <mxPoint x="1680" y="920" as="targetPoint" />
          </mxGeometry>
        </mxCell>
        <mxCell id="nBRvUsM2G6yTezKMeJZh-114" value="" style="endArrow=none;html=1;rounded=0;" edge="1" parent="1">
          <mxGeometry width="50" height="50" relative="1" as="geometry">
            <mxPoint x="1630" y="930" as="sourcePoint" />
            <mxPoint x="1650" y="910" as="targetPoint" />
          </mxGeometry>
        </mxCell>
        <mxCell id="nBRvUsM2G6yTezKMeJZh-115" value="8" style="text;html=1;strokeColor=none;fillColor=none;align=center;verticalAlign=middle;whiteSpace=wrap;rounded=0;" vertex="1" parent="1">
          <mxGeometry x="1610" y="890" width="60" height="30" as="geometry" />
        </mxCell>
        <mxCell id="nBRvUsM2G6yTezKMeJZh-116" value="" style="endArrow=classic;html=1;rounded=0;exitX=1;exitY=0.5;exitDx=0;exitDy=0;entryX=0;entryY=0.5;entryDx=0;entryDy=0;" edge="1" parent="1" source="nBRvUsM2G6yTezKMeJZh-3" target="nBRvUsM2G6yTezKMeJZh-15">
          <mxGeometry width="50" height="50" relative="1" as="geometry">
            <mxPoint x="1110" y="460" as="sourcePoint" />
            <mxPoint x="1160" y="410" as="targetPoint" />
            <Array as="points">
              <mxPoint x="1010" y="490" />
              <mxPoint x="1010" y="350" />
            </Array>
          </mxGeometry>
        </mxCell>
        <mxCell id="nBRvUsM2G6yTezKMeJZh-117" value="" style="endArrow=classic;html=1;rounded=0;exitX=1;exitY=0.5;exitDx=0;exitDy=0;entryX=0;entryY=0.5;entryDx=0;entryDy=0;" edge="1" parent="1" source="nBRvUsM2G6yTezKMeJZh-5" target="nBRvUsM2G6yTezKMeJZh-20">
          <mxGeometry width="50" height="50" relative="1" as="geometry">
            <mxPoint x="1110" y="500" as="sourcePoint" />
            <mxPoint x="1160" y="450" as="targetPoint" />
            <Array as="points">
              <mxPoint x="960" y="530" />
              <mxPoint x="960" y="550" />
            </Array>
          </mxGeometry>
        </mxCell>
        <mxCell id="nBRvUsM2G6yTezKMeJZh-119" value="" style="endArrow=none;html=1;rounded=0;exitX=1;exitY=0.5;exitDx=0;exitDy=0;" edge="1" parent="1" source="nBRvUsM2G6yTezKMeJZh-6">
          <mxGeometry width="50" height="50" relative="1" as="geometry">
            <mxPoint x="920" y="568.19" as="sourcePoint" />
            <mxPoint x="1350" y="570" as="targetPoint" />
          </mxGeometry>
        </mxCell>
        <mxCell id="nBRvUsM2G6yTezKMeJZh-122" value="" style="endArrow=none;html=1;rounded=0;" edge="1" parent="1">
          <mxGeometry width="50" height="50" relative="1" as="geometry">
            <mxPoint x="1350" y="50" as="sourcePoint" />
            <mxPoint x="1350" y="570" as="targetPoint" />
          </mxGeometry>
        </mxCell>
        <mxCell id="nBRvUsM2G6yTezKMeJZh-123" value="" style="endArrow=classic;html=1;rounded=0;entryX=0;entryY=0.5;entryDx=0;entryDy=0;" edge="1" parent="1" target="nBRvUsM2G6yTezKMeJZh-37">
          <mxGeometry width="50" height="50" relative="1" as="geometry">
            <mxPoint x="1350" y="50" as="sourcePoint" />
            <mxPoint x="1330" y="100" as="targetPoint" />
          </mxGeometry>
        </mxCell>
        <mxCell id="nBRvUsM2G6yTezKMeJZh-124" value="" style="html=1;verticalAlign=bottom;startArrow=oval;startFill=1;endArrow=block;startSize=8;curved=0;rounded=0;" edge="1" parent="1">
          <mxGeometry width="60" relative="1" as="geometry">
            <mxPoint x="1350" y="170" as="sourcePoint" />
            <mxPoint x="1440" y="170" as="targetPoint" />
          </mxGeometry>
        </mxCell>
        <mxCell id="nBRvUsM2G6yTezKMeJZh-125" value="" style="html=1;verticalAlign=bottom;startArrow=oval;startFill=1;endArrow=block;startSize=8;curved=0;rounded=0;" edge="1" parent="1">
          <mxGeometry width="60" relative="1" as="geometry">
            <mxPoint x="1350" y="289.53" as="sourcePoint" />
            <mxPoint x="1440" y="289.53" as="targetPoint" />
          </mxGeometry>
        </mxCell>
        <mxCell id="nBRvUsM2G6yTezKMeJZh-126" value="" style="html=1;verticalAlign=bottom;startArrow=oval;startFill=1;endArrow=block;startSize=8;curved=0;rounded=0;" edge="1" parent="1">
          <mxGeometry width="60" relative="1" as="geometry">
            <mxPoint x="1350" y="409.53" as="sourcePoint" />
            <mxPoint x="1440" y="409.53" as="targetPoint" />
          </mxGeometry>
        </mxCell>
        <mxCell id="nBRvUsM2G6yTezKMeJZh-127" value="" style="html=1;verticalAlign=bottom;startArrow=oval;startFill=1;endArrow=block;startSize=8;curved=0;rounded=0;" edge="1" parent="1">
          <mxGeometry width="60" relative="1" as="geometry">
            <mxPoint x="1350" y="529.53" as="sourcePoint" />
            <mxPoint x="1440" y="529.53" as="targetPoint" />
          </mxGeometry>
        </mxCell>
        <mxCell id="nBRvUsM2G6yTezKMeJZh-131" value="" style="html=1;verticalAlign=bottom;startArrow=oval;startFill=1;endArrow=block;startSize=8;curved=0;rounded=0;entryX=0;entryY=0.5;entryDx=0;entryDy=0;" edge="1" parent="1" target="nBRvUsM2G6yTezKMeJZh-52">
          <mxGeometry width="60" relative="1" as="geometry">
            <mxPoint x="1350" y="569.52" as="sourcePoint" />
            <mxPoint x="1440" y="569.52" as="targetPoint" />
            <Array as="points">
              <mxPoint x="1350" y="650" />
            </Array>
          </mxGeometry>
        </mxCell>
        <mxCell id="nBRvUsM2G6yTezKMeJZh-132" value="" style="html=1;verticalAlign=bottom;startArrow=oval;startFill=1;endArrow=block;startSize=8;curved=0;rounded=0;entryX=0;entryY=0.5;entryDx=0;entryDy=0;" edge="1" parent="1" target="nBRvUsM2G6yTezKMeJZh-55">
          <mxGeometry width="60" relative="1" as="geometry">
            <mxPoint x="1350" y="650" as="sourcePoint" />
            <mxPoint x="1440" y="730.48" as="targetPoint" />
            <Array as="points">
              <mxPoint x="1350" y="770" />
            </Array>
          </mxGeometry>
        </mxCell>
        <mxCell id="nBRvUsM2G6yTezKMeJZh-133" value="" style="html=1;verticalAlign=bottom;startArrow=oval;startFill=1;endArrow=block;startSize=8;curved=0;rounded=0;entryX=0;entryY=0.5;entryDx=0;entryDy=0;" edge="1" parent="1">
          <mxGeometry width="60" relative="1" as="geometry">
            <mxPoint x="1350" y="770" as="sourcePoint" />
            <mxPoint x="1440" y="890" as="targetPoint" />
            <Array as="points">
              <mxPoint x="1350" y="890" />
            </Array>
          </mxGeometry>
        </mxCell>
        <mxCell id="nBRvUsM2G6yTezKMeJZh-134" value="" style="endArrow=classic;html=1;rounded=0;entryX=1;entryY=0.5;entryDx=0;entryDy=0;exitX=0;exitY=0.5;exitDx=0;exitDy=0;" edge="1" parent="1" source="nBRvUsM2G6yTezKMeJZh-13" target="nBRvUsM2G6yTezKMeJZh-9">
          <mxGeometry width="50" height="50" relative="1" as="geometry">
            <mxPoint x="1060" y="410" as="sourcePoint" />
            <mxPoint x="1110" y="360" as="targetPoint" />
            <Array as="points">
              <mxPoint x="1040" y="310" />
              <mxPoint x="1040" y="410" />
            </Array>
          </mxGeometry>
        </mxCell>
        <mxCell id="nBRvUsM2G6yTezKMeJZh-135" value="" style="html=1;verticalAlign=bottom;startArrow=oval;startFill=1;endArrow=block;startSize=8;curved=0;rounded=0;entryX=1;entryY=0.5;entryDx=0;entryDy=0;" edge="1" parent="1" target="nBRvUsM2G6yTezKMeJZh-9">
          <mxGeometry width="60" relative="1" as="geometry">
            <mxPoint x="1040" y="410" as="sourcePoint" />
            <mxPoint x="1120" y="450" as="targetPoint" />
          </mxGeometry>
        </mxCell>
        <mxCell id="nBRvUsM2G6yTezKMeJZh-136" value="" style="endArrow=none;html=1;rounded=0;exitX=0;exitY=0.5;exitDx=0;exitDy=0;" edge="1" parent="1" source="nBRvUsM2G6yTezKMeJZh-18">
          <mxGeometry width="50" height="50" relative="1" as="geometry">
            <mxPoint x="1050" y="510" as="sourcePoint" />
            <mxPoint x="1040" y="410" as="targetPoint" />
            <Array as="points">
              <mxPoint x="1040" y="510" />
            </Array>
          </mxGeometry>
        </mxCell>
        <mxCell id="nBRvUsM2G6yTezKMeJZh-137" value="" style="endArrow=none;html=1;rounded=0;exitX=1;exitY=0.5;exitDx=0;exitDy=0;" edge="1" parent="1" source="nBRvUsM2G6yTezKMeJZh-8">
          <mxGeometry width="50" height="50" relative="1" as="geometry">
            <mxPoint x="1090" y="420" as="sourcePoint" />
            <mxPoint x="1320" y="370" as="targetPoint" />
          </mxGeometry>
        </mxCell>
        <mxCell id="nBRvUsM2G6yTezKMeJZh-140" value="" style="html=1;verticalAlign=bottom;startArrow=oval;startFill=1;endArrow=block;startSize=8;curved=0;rounded=0;entryX=0;entryY=0.5;entryDx=0;entryDy=0;" edge="1" parent="1" target="nBRvUsM2G6yTezKMeJZh-42">
          <mxGeometry width="60" relative="1" as="geometry">
            <mxPoint x="1320" y="370" as="sourcePoint" />
            <mxPoint x="1320" y="310" as="targetPoint" />
            <Array as="points">
              <mxPoint x="1320" y="320" />
            </Array>
          </mxGeometry>
        </mxCell>
        <mxCell id="nBRvUsM2G6yTezKMeJZh-141" value="" style="html=1;verticalAlign=bottom;startArrow=oval;startFill=1;endArrow=block;startSize=8;curved=0;rounded=0;entryX=0;entryY=0.5;entryDx=0;entryDy=0;" edge="1" parent="1" target="nBRvUsM2G6yTezKMeJZh-39">
          <mxGeometry width="60" relative="1" as="geometry">
            <mxPoint x="1320" y="320" as="sourcePoint" />
            <mxPoint x="1440" y="270" as="targetPoint" />
            <Array as="points">
              <mxPoint x="1320" y="200" />
            </Array>
          </mxGeometry>
        </mxCell>
        <mxCell id="nBRvUsM2G6yTezKMeJZh-142" value="" style="html=1;verticalAlign=bottom;startArrow=oval;startFill=1;endArrow=block;startSize=8;curved=0;rounded=0;entryX=0;entryY=0.5;entryDx=0;entryDy=0;" edge="1" parent="1">
          <mxGeometry width="60" relative="1" as="geometry">
            <mxPoint x="1320" y="200" as="sourcePoint" />
            <mxPoint x="1440" y="80" as="targetPoint" />
            <Array as="points">
              <mxPoint x="1320" y="80" />
            </Array>
          </mxGeometry>
        </mxCell>
        <mxCell id="nBRvUsM2G6yTezKMeJZh-143" value="" style="endArrow=classic;html=1;rounded=0;entryX=0;entryY=0.5;entryDx=0;entryDy=0;" edge="1" parent="1" target="nBRvUsM2G6yTezKMeJZh-45">
          <mxGeometry width="50" height="50" relative="1" as="geometry">
            <mxPoint x="1320" y="370" as="sourcePoint" />
            <mxPoint x="1330" y="480" as="targetPoint" />
            <Array as="points">
              <mxPoint x="1320" y="440" />
            </Array>
          </mxGeometry>
        </mxCell>
        <mxCell id="nBRvUsM2G6yTezKMeJZh-144" value="" style="html=1;verticalAlign=bottom;startArrow=oval;startFill=1;endArrow=block;startSize=8;curved=0;rounded=0;entryX=0;entryY=0.5;entryDx=0;entryDy=0;" edge="1" parent="1" target="nBRvUsM2G6yTezKMeJZh-48">
          <mxGeometry width="60" relative="1" as="geometry">
            <mxPoint x="1320" y="440" as="sourcePoint" />
            <mxPoint x="1360" y="460" as="targetPoint" />
            <Array as="points">
              <mxPoint x="1320" y="560" />
            </Array>
          </mxGeometry>
        </mxCell>
        <mxCell id="nBRvUsM2G6yTezKMeJZh-145" value="" style="html=1;verticalAlign=bottom;startArrow=oval;startFill=1;endArrow=block;startSize=8;curved=0;rounded=0;entryX=0;entryY=0.5;entryDx=0;entryDy=0;" edge="1" parent="1">
          <mxGeometry width="60" relative="1" as="geometry">
            <mxPoint x="1320" y="560" as="sourcePoint" />
            <mxPoint x="1440" y="680" as="targetPoint" />
            <Array as="points">
              <mxPoint x="1320" y="680" />
            </Array>
          </mxGeometry>
        </mxCell>
        <mxCell id="nBRvUsM2G6yTezKMeJZh-146" value="" style="html=1;verticalAlign=bottom;startArrow=oval;startFill=1;endArrow=block;startSize=8;curved=0;rounded=0;entryX=0;entryY=0.5;entryDx=0;entryDy=0;" edge="1" parent="1">
          <mxGeometry width="60" relative="1" as="geometry">
            <mxPoint x="1320" y="680" as="sourcePoint" />
            <mxPoint x="1440" y="800" as="targetPoint" />
            <Array as="points">
              <mxPoint x="1320" y="800" />
            </Array>
          </mxGeometry>
        </mxCell>
        <mxCell id="nBRvUsM2G6yTezKMeJZh-147" value="" style="html=1;verticalAlign=bottom;startArrow=oval;startFill=1;endArrow=block;startSize=8;curved=0;rounded=0;entryX=0;entryY=0.5;entryDx=0;entryDy=0;" edge="1" parent="1">
          <mxGeometry width="60" relative="1" as="geometry">
            <mxPoint x="1320" y="800" as="sourcePoint" />
            <mxPoint x="1440" y="920" as="targetPoint" />
            <Array as="points">
              <mxPoint x="1320" y="920" />
            </Array>
          </mxGeometry>
        </mxCell>
        <mxCell id="nBRvUsM2G6yTezKMeJZh-148" value="" style="html=1;verticalAlign=bottom;startArrow=oval;startFill=1;endArrow=block;startSize=8;curved=0;rounded=0;entryX=0;entryY=0.5;entryDx=0;entryDy=0;" edge="1" parent="1" target="nBRvUsM2G6yTezKMeJZh-12">
          <mxGeometry width="60" relative="1" as="geometry">
            <mxPoint x="950" y="370" as="sourcePoint" />
            <mxPoint x="1140" y="330" as="targetPoint" />
            <Array as="points">
              <mxPoint x="950" y="290" />
            </Array>
          </mxGeometry>
        </mxCell>
        <mxCell id="nBRvUsM2G6yTezKMeJZh-149" value="" style="endArrow=classic;html=1;rounded=0;entryX=0;entryY=0.5;entryDx=0;entryDy=0;" edge="1" parent="1" target="nBRvUsM2G6yTezKMeJZh-17">
          <mxGeometry width="50" height="50" relative="1" as="geometry">
            <mxPoint x="950" y="370" as="sourcePoint" />
            <mxPoint x="1120" y="380" as="targetPoint" />
            <Array as="points">
              <mxPoint x="950" y="390" />
              <mxPoint x="1060" y="390" />
              <mxPoint x="1060" y="490" />
            </Array>
          </mxGeometry>
        </mxCell>
      </root>
    </mxGraphModel>
  </diagram>
</mxfile>
